<svg aria-hidden="true" style="position: absolute; width: 0; height: 0; overflow: hidden;" version="1.1" xmlns="http://www.w3.org/2000/svg" xmlns:xlink="http://www.w3.org/1999/xlink">
<defs>
<symbol id="icon-x" viewBox="0 0 35 32">
<path  style="fill: var(--color1, currentColor)" d="M9.871 0h14.843c5.355 0 9.697 4.341 9.697 9.697v12.32c0 5.355-4.341 9.697-9.697 9.697h-14.843c-5.355 0-9.697-4.341-9.697-9.697v-12.32c0-5.355 4.341-9.697 9.697-9.697zM27.921 5.172h-3.642l-5.99 6.9-5.223-6.9h-7.571l9.009 11.788-8.529 9.775h3.642l6.613-7.523 5.75 7.523h7.379l-9.392-12.411 7.954-9.152zM24.998 24.531h-2.013l-13.225-17.298h2.204l13.034 17.298z"></path>
</symbol>
<symbol id="icon-google" viewBox="0 0 35 32">
<path  style="fill: var(--color1, currentColor)" d="M0 9.796c0-5.41 4.386-9.796 9.796-9.796h12.082c5.41 0 9.796 4.386 9.796 9.796v12.408c0 5.41-4.386 9.796-9.796 9.796h-12.082c-5.41 0-9.796-4.386-9.796-9.796v-12.408zM27.115 16.178c0-0.827-0.074-1.623-0.212-2.387h-10.99v4.514h6.28c-0.27 1.459-1.093 2.694-2.328 3.522v-0c-1.045 0.7-2.381 1.114-3.951 1.114-3.039 0-5.611-2.053-6.529-4.811h-0c-0.233-0.7-0.366-1.448-0.366-2.217s0.133-1.517 0.366-2.217h0c0.918-2.758 3.49-4.811 6.529-4.811 1.713 0 3.251 0.589 4.46 1.745l3.347-3.347c-2.021-1.883-4.662-3.039-7.807-3.039-4.561 0-8.507 2.615-10.427 6.428h-0c-0.817 1.626-1.242 3.421-1.241 5.24 0 1.883 0.451 3.665 1.241 5.24h0c1.92 3.813 5.866 6.428 10.427 6.428 3.15 0 5.792-1.045 7.722-2.827h0c2.206-2.031 3.479-5.023 3.479-8.576z"></path>
</symbol>
<symbol id="icon-apple" viewBox="0 0 35 32">
<path  style="fill: var(--color1, currentColor)" d="M9.796 0c-5.41 0-9.796 4.386-9.796 9.796v12.408c0 5.41 4.386 9.796 9.796 9.796h12.082c5.41 0 9.796-4.386 9.796-9.796v-12.408c0-5.41-4.386-9.796-9.796-9.796h-12.082zM21.488 16.768c0-1.511 0.826-2.871 2.164-3.664-0.905-1.247-2.4-1.964-3.973-1.927-0.866 0-1.654 0.292-2.315 0.537-0.48 0.178-0.894 0.332-1.225 0.332-0.364 0-0.78-0.161-1.247-0.341-0.594-0.229-1.269-0.49-2.018-0.49-2.518 0-5.036 2.002-5.036 5.742 0.039 2.304 0.787 4.495 2.085 6.384 0.984 1.36 1.849 2.455 3.108 2.455 0.598 0 1.037-0.179 1.497-0.367 0.508-0.208 1.042-0.426 1.847-0.426 0.819 0 1.318 0.205 1.797 0.401 0.442 0.181 0.866 0.355 1.508 0.355 1.338 0 2.242-1.209 3.108-2.38 0.59-0.831 1.062-1.738 1.377-2.72-1.613-0.642-2.675-2.191-2.675-3.891zM20.032 6.908c-0.039 0.982-0.393 1.927-1.062 2.682-0.669 0.793-1.652 1.322-2.715 1.398-0.039 0-0.089-0.009-0.138-0.019s-0.098-0.019-0.138-0.019c-0.039-0.113-0.039-0.227-0.039-0.34 0.039-0.982 0.433-1.889 1.102-2.606 0.747-0.831 1.81-1.36 2.951-1.473 0.039 0.113 0.039 0.264 0.039 0.378z"></path>
</symbol>
<symbol id="icon-logo" viewBox="0 0 100 32">
<path fill="#1ed760" style="fill: var(--color1, #1ed760)" d="M24.574 13.984c-4.977-3.019-13.187-3.297-17.938-1.824-0.763 0.236-1.57-0.204-1.801-0.983s0.199-1.604 0.963-1.84c5.454-1.691 14.521-1.365 20.25 2.11 0.686 0.416 0.912 1.322 0.505 2.022s-1.294 0.932-1.979 0.516zM24.411 18.456c-0.349 0.579-1.090 0.76-1.656 0.405-4.149-2.606-10.477-3.361-15.386-1.838-0.637 0.196-1.309-0.17-1.502-0.819-0.192-0.65 0.167-1.336 0.803-1.534 5.608-1.738 12.579-0.896 17.345 2.096 0.566 0.356 0.744 1.113 0.396 1.691zM22.521 22.751c-0.277 0.465-0.87 0.61-1.323 0.327-3.626-2.264-8.19-2.775-13.564-1.521-0.518 0.121-1.034-0.21-1.152-0.739s0.205-1.056 0.724-1.177c5.882-1.374 10.927-0.782 14.996 1.758 0.454 0.283 0.597 0.889 0.319 1.352zM15.44 0c-8.527 0-15.44 7.062-15.44 15.773s6.913 15.774 15.44 15.774c8.528 0 15.44-7.062 15.44-15.774s-6.913-15.773-15.44-15.773z"></path>
<path fill="#1ed760" style="fill: var(--color1, #1ed760)" d="M42.008 14.562c-2.666-0.649-3.141-1.105-3.141-2.063 0-0.905 0.834-1.514 2.074-1.514 1.202 0 2.394 0.462 3.644 1.414 0.038 0.029 0.085 0.040 0.132 0.033s0.088-0.033 0.115-0.073l1.302-1.874c0.053-0.077 0.039-0.184-0.033-0.243-1.487-1.219-3.162-1.812-5.12-1.812-2.878 0-4.889 1.764-4.889 4.29 0 2.708 1.734 3.666 4.732 4.406 2.551 0.6 2.982 1.103 2.982 2.002 0 0.996-0.871 1.616-2.272 1.616-1.556 0-2.825-0.535-4.245-1.792-0.035-0.031-0.084-0.045-0.128-0.043-0.047 0.004-0.090 0.026-0.12 0.063l-1.46 1.774c-0.061 0.074-0.053 0.184 0.017 0.247 1.652 1.507 3.684 2.303 5.876 2.303 3.102 0 5.106-1.732 5.106-4.411 0-2.265-1.325-3.517-4.572-4.324z"></path>
<path fill="#1ed760" style="fill: var(--color1, #1ed760)" d="M55.849 17.597c0 1.912-1.153 3.247-2.804 3.247-1.632 0-2.864-1.395-2.864-3.247s1.231-3.247 2.864-3.247c1.625 0 2.804 1.365 2.804 3.247zM53.598 11.876c-1.344 0-2.447 0.541-3.356 1.649v-1.248c0-0.098-0.078-0.179-0.175-0.179h-2.387c-0.096 0-0.174 0.080-0.174 0.179v13.863c0 0.099 0.078 0.179 0.174 0.179h2.387c0.096 0 0.175-0.080 0.175-0.179v-4.376c0.91 1.043 2.012 1.552 3.356 1.552 2.498 0 5.027-1.965 5.027-5.72s-2.529-5.721-5.027-5.721z"></path>
<path fill="#1ed760" style="fill: var(--color1, #1ed760)" d="M65.107 20.864c-1.711 0-3.001-1.405-3.001-3.267 0-1.87 1.245-3.227 2.962-3.227 1.722 0 3.021 1.405 3.021 3.268 0 1.87-1.254 3.226-2.982 3.226zM65.107 11.876c-3.217 0-5.738 2.531-5.738 5.762 0 3.196 2.503 5.7 5.698 5.7 3.229 0 5.757-2.522 5.757-5.741 0-3.208-2.511-5.721-5.717-5.721z"></path>
<path fill="#1ed760" style="fill: var(--color1, #1ed760)" d="M77.695 12.099h-2.627v-2.744c0-0.099-0.078-0.179-0.174-0.179h-2.386c-0.097 0-0.175 0.080-0.175 0.179v2.744h-1.148c-0.097 0-0.174 0.080-0.174 0.179v2.096c0 0.098 0.078 0.179 0.174 0.179h1.148v5.423c0 2.192 1.067 3.303 3.173 3.303 0.856 0 1.567-0.181 2.236-0.568 0.054-0.031 0.088-0.091 0.088-0.155v-1.996c0-0.062-0.031-0.12-0.083-0.152-0.052-0.033-0.117-0.035-0.17-0.008-0.459 0.236-0.904 0.345-1.401 0.345-0.766 0-1.108-0.355-1.108-1.151v-5.041h2.627c0.097 0 0.174-0.080 0.174-0.179v-2.096c0-0.098-0.078-0.179-0.174-0.179z"></path>
<path fill="#1ed760" style="fill: var(--color1, #1ed760)" d="M86.847 12.11v-0.337c0-0.991 0.372-1.433 1.207-1.433 0.497 0 0.897 0.101 1.345 0.254 0.055 0.018 0.113 0.009 0.158-0.025s0.072-0.088 0.072-0.145v-2.055c0-0.079-0.050-0.148-0.124-0.171-0.473-0.144-1.078-0.291-1.984-0.291-2.204 0-3.37 1.268-3.37 3.667v0.516h-1.147c-0.096 0-0.175 0.080-0.175 0.179v2.107c0 0.098 0.079 0.179 0.175 0.179h1.147v8.365c0 0.099 0.078 0.179 0.174 0.179h2.386c0.097 0 0.175-0.080 0.175-0.179v-8.365h2.229l3.414 8.363c-0.388 0.879-0.769 1.053-1.289 1.053-0.42 0-0.863-0.128-1.316-0.381-0.043-0.024-0.093-0.028-0.139-0.013-0.046 0.017-0.084 0.051-0.104 0.096l-0.809 1.813c-0.039 0.086-0.006 0.186 0.075 0.231 0.845 0.467 1.607 0.667 2.549 0.667 1.763 0 2.737-0.839 3.596-3.095l4.141-10.932c0.021-0.055 0.014-0.117-0.019-0.166s-0.086-0.077-0.144-0.077h-2.485c-0.074 0-0.141 0.048-0.165 0.12l-2.546 7.428-2.788-7.433c-0.026-0.069-0.091-0.115-0.164-0.115h-4.078z"></path>
<path fill="#1ed760" style="fill: var(--color1, #1ed760)" d="M81.541 12.099h-2.387c-0.097 0-0.175 0.080-0.175 0.179v10.639c0 0.099 0.078 0.179 0.175 0.179h2.387c0.096 0 0.175-0.080 0.175-0.179v-10.639c0-0.098-0.079-0.179-0.175-0.179z"></path>
<path fill="#1ed760" style="fill: var(--color1, #1ed760)" d="M80.36 7.254c-0.946 0-1.713 0.782-1.713 1.748s0.767 1.75 1.713 1.75c0.945 0 1.712-0.783 1.712-1.75s-0.767-1.748-1.712-1.748z"></path>
</symbol>
</defs>
</svg>
